<svg width="481" height="521" viewBox="0 0 481 521" fill="none" xmlns="http://www.w3.org/2000/svg">
<path d="M140.166 345.01C129.653 362.773 124.074 383.114 124.039 403.826V403.989C124.039 419.854 127.174 435.197 133.362 449.645C151.741 492.574 193.717 520.31 240.302 520.31C285.355 520.31 326.095 494.373 345.35 453.842C331.61 451.724 318.45 447.318 306.126 440.711C300.001 451.677 291.224 460.971 280.566 467.728C268.55 475.35 254.652 479.373 240.389 479.373C226.115 479.373 212.212 475.338 200.184 467.705C188.487 460.28 179.059 449.808 172.924 437.414C167.763 426.994 165.151 415.796 165.151 404.128C165.151 391.601 168.309 379.19 174.276 368.236C174.868 367.15 175.513 366.036 176.198 364.915C186.258 346.415 187.244 324.396 179.03 305.269C163.113 315.178 149.732 328.849 140.166 345.01Z" fill="white"/>
<path d="M298.329 303.318C284.56 295.354 269.56 290.385 253.758 288.556C249.271 288.034 244.743 287.772 240.302 287.772C237.377 287.772 234.416 287.888 231.45 288.115C236.46 301.188 239.153 314.864 239.49 328.889C241.225 328.866 242.932 328.907 244.79 329.017C269.461 330.445 291.886 343.977 304.767 365.206C305.203 365.925 305.644 366.686 306.114 367.528C312.023 377.274 320.383 385.448 330.286 391.166C338.442 395.873 347.243 398.788 356.484 399.844C355.788 380.49 350.261 361.589 340.398 344.952C330.199 327.74 315.652 313.338 298.329 303.318Z" fill="white"/>
<path d="M359.834 407.129C348.119 406.433 337.003 403.089 326.803 397.203C315.866 390.887 306.636 381.854 300.123 371.08C299.665 370.32 299.212 369.542 298.776 368.758C287.735 350.606 269.02 338.665 248.157 336.285C248.865 354.96 254.072 373.315 263.302 389.592C273.461 407.501 288.281 422.426 306.172 432.753L306.445 432.91C320.209 440.81 335.151 445.733 350.842 447.538C397.009 452.856 441.812 430.344 464.992 390.196C487.492 351.227 485.425 303.011 460.017 266.085C451.28 276.894 440.86 286.048 428.96 293.374C435.398 304.16 439.061 316.409 439.589 329.017C440.181 343.239 436.727 357.293 429.593 369.652C422.481 381.97 412.085 391.967 399.523 398.567C387.303 404.993 373.58 407.948 359.834 407.129Z" fill="white"/>
<path d="M306.259 231.365C292.513 239.254 280.74 249.68 271.255 262.364C268.474 266.079 265.903 269.974 263.61 273.945C262.054 276.638 260.591 279.431 259.244 282.269C273.083 284.405 286.301 288.852 298.637 295.516C298.84 295.145 299.049 294.779 299.258 294.425C300.03 293.09 300.855 291.76 301.778 290.373C315.303 270.021 338.03 257.488 362.579 256.849C363.822 256.814 365.064 256.814 366.277 256.843C377.516 256.53 388.627 253.383 398.402 247.735C406.529 243.045 413.426 236.909 418.958 229.473C401.862 220.364 382.717 215.668 363.386 215.854C343.376 216.034 323.622 221.398 306.259 231.365Z" fill="white"/>
<path d="M240.384 191.595C238.921 191.595 237.388 191.548 235.821 191.455C211.742 190.01 189.648 176.902 176.708 156.399C175.768 154.913 174.874 153.369 174.038 151.819C168.187 142.583 160.077 134.81 150.574 129.324C142.337 124.57 133.455 121.644 124.115 120.611C124.841 139.988 130.408 158.907 140.311 175.55C150.563 192.779 165.162 207.158 182.537 217.148C196.271 225.043 211.219 229.96 226.963 231.766C231.415 232.276 235.896 232.532 240.291 232.532C243.193 232.532 246.131 232.421 249.068 232.195C244.116 219.18 241.452 205.556 241.127 191.595C240.883 191.595 240.633 191.595 240.384 191.595Z" fill="white"/>
<path d="M340.247 175.59C350.789 157.891 356.432 137.614 356.548 116.954L356.56 116.263C356.56 100.537 353.46 85.2758 347.341 70.8967C329.015 27.8293 286.998 0 240.297 0C195.128 0 154.347 26.0297 135.133 66.6997C148.96 68.8127 162.196 73.242 174.584 79.9003C180.696 68.9056 189.474 59.5827 200.149 52.8025C212.183 45.1573 226.098 41.117 240.384 41.117C254.658 41.117 268.561 45.1515 280.589 52.7851C292.286 60.2097 301.714 70.6819 307.85 83.0699C313.01 93.4899 315.628 104.694 315.628 116.362C315.628 128.802 312.511 141.143 306.613 152.045C305.888 153.392 305.087 154.756 304.245 156.109C294.37 174.418 293.366 196.216 301.371 215.169C317.265 205.3 330.658 191.688 340.247 175.59Z" fill="white"/>
<path d="M457.341 258.12C485.257 220.753 488.258 170.575 464.992 130.27C442.602 91.4929 400.016 69.161 355.526 72.4873C360.501 85.5428 363.177 99.2427 363.497 113.302C375.989 113.192 388.336 116.182 399.436 122.027C411.963 128.628 422.336 138.612 429.436 150.902C436.559 163.237 440.013 177.256 439.438 191.455C438.875 205.26 434.556 218.64 426.946 230.14C420.49 239.893 412.061 247.816 401.897 253.685C391.088 259.926 378.81 263.397 366.387 263.722C365.163 263.757 363.92 263.757 362.69 263.728C341.716 264.303 322.211 274.432 309.783 291.041C326.31 299.783 344.804 304.473 363.526 304.63C384.116 304.804 404.474 299.446 422.377 289.125L422.476 289.073C436.164 281.166 447.907 270.746 457.341 258.12Z" fill="white"/>
<path d="M303.188 89.496C286.644 99.7187 272.903 113.958 263.314 130.845C253.457 148.214 248.18 167.957 248.07 187.932C247.977 203.791 251.071 219.215 257.253 233.78C259.111 238.151 261.253 242.447 263.61 246.534C265.148 249.192 266.808 251.822 268.573 254.388C277.338 243.556 287.77 234.401 299.665 227.104C299.473 226.785 299.287 226.466 299.101 226.146C298.271 224.701 297.453 223.174 296.687 221.601C286.017 199.832 286.568 174.046 298.167 152.614C298.904 151.256 299.699 149.891 300.535 148.551C305.853 138.688 308.662 127.525 308.662 116.275C308.668 106.952 306.828 97.9598 303.188 89.496Z" fill="white"/>
<path d="M117.782 215.848C117.207 215.842 116.632 215.837 116.063 215.837C96.065 215.837 76.3222 221.055 58.8549 230.97L58.5936 231.121C44.8009 238.999 32.9877 249.39 23.4849 262.01C-4.46633 299.127 -7.7462 349.166 15.143 389.476C37.3588 428.608 79.9909 451.23 124.69 448.026C119.79 435.017 117.172 421.398 116.882 407.425C116.696 407.425 116.505 407.425 116.319 407.425C103.948 407.425 91.7403 404.384 80.763 398.544C68.1951 391.851 57.8273 381.756 50.7859 369.35C43.7676 356.986 40.4065 342.955 41.0741 328.785C41.7242 315.004 46.1186 301.67 53.787 290.228C60.3235 280.475 68.8279 272.586 79.0737 266.77C90.0568 260.535 102.52 257.151 115.105 256.983C115.976 256.971 116.882 256.977 117.787 256.994C139.028 256.663 158.806 246.568 171.42 229.78C154.957 220.928 136.491 216.127 117.782 215.848Z" fill="white"/>
<path d="M216.949 390.132C226.916 372.775 232.292 353.021 232.483 333.005C232.64 317.157 229.61 301.722 223.474 287.122C221.674 282.838 219.613 278.647 217.355 274.67C215.817 271.965 214.157 269.295 212.386 266.689C203.533 277.544 193.009 286.693 181.016 293.955C181.231 294.32 181.44 294.68 181.648 295.04C182.415 296.387 183.14 297.769 183.872 299.266C194.576 321.233 193.88 347.181 181.997 368.671C181.393 369.757 180.766 370.831 180.133 371.864C174.711 381.715 171.803 392.89 171.722 404.18C171.652 413.561 173.452 422.617 177.068 431.156C193.578 421.027 207.318 406.909 216.949 390.132Z" fill="white"/>
<path d="M120.498 113.256C132.178 113.877 143.277 117.128 153.494 122.921C164.35 129.075 173.562 137.904 180.145 148.452C180.795 149.491 181.422 150.559 182.026 151.639C193.148 169.431 211.765 181.111 232.384 183.415C231.549 164.735 226.219 146.414 216.868 130.195C206.581 112.35 191.645 97.5186 173.678 87.3133L173.591 87.2611C159.827 79.4534 144.891 74.612 129.223 72.8763C82.8703 67.7446 38.0845 90.5874 15.1256 131.06C-6.96247 170.012 -4.62886 218.042 20.7739 254.713C29.5105 243.811 39.9595 234.564 51.9237 227.156C45.5033 216.446 41.8171 204.285 41.2366 191.752C40.5749 177.605 43.9302 163.603 50.931 151.256C57.9551 138.868 68.2938 128.779 80.8269 122.085C93.0058 115.572 106.729 112.519 120.498 113.256Z" fill="white"/>
<path d="M179.141 229.873C165.783 250.104 143.266 262.695 118.914 263.554C117.369 263.606 115.791 263.612 114.212 263.571C103.014 263.989 91.9725 267.223 82.2723 272.923C74.2324 277.648 67.4173 283.79 61.9605 291.215C79.1608 300.3 98.3929 304.926 117.811 304.636C137.78 304.334 157.471 298.877 174.752 288.852C188.469 280.893 200.201 270.415 209.623 257.702C212.456 253.883 215.068 249.866 217.396 245.756C218.911 243.085 220.333 240.316 221.651 237.495C207.87 235.428 194.692 231.075 182.374 224.515C182.194 224.846 182.014 225.165 181.834 225.484C181.016 226.93 180.104 228.41 179.141 229.873Z" fill="white"/>
</svg>
